  0
SECTION
  2
HEADER
  9
$ACADVER
  1
AC1027
  9
$ACADMAINTVER
 70
105
  9
$DWGCODEPAGE
  3
ANSI_1252
  9
$LASTSAVEDBY
  1
ezdxf
  9
$REQUIREDVERSIONS
160
0
  9
$INSBASE
 10
0.0
 20
0.0
 30
0.0
  9
$EXTMIN
 10
1e+20
 20
1e+20
 30
1e+20
  9
$EXTMAX
 10
-1e+20
 20
-1e+20
 30
-1e+20
  9
$LIMMIN
 10
0.0
 20
0.0
  9
$LIMMAX
 10
420.0
 20
297.0
  9
$ORTHOMODE
 70
0
  9
$REGENMODE
 70
1
  9
$FILLMODE
 70
1
  9
$QTEXTMODE
 70
0
  9
$MIRRTEXT
 70
1
  9
$LTSCALE
 40
1.0
  9
$ATTMODE
 70
1
  9
$TEXTSIZE
 40
2.5
  9
$TRACEWID
 40
1.0
  9
$TEXTSTYLE
  7
Standard
  9
$CLAYER
  8
0
  9
$CELTYPE
  6
ByLayer
  9
$CECOLOR
 62
256
  9
$CELTSCALE
 40
1.0
  9
$DISPSILH
 70
0
  9
$DIMSCALE
 40
1.0
  9
$DIMASZ
 40
2.5
  9
$DIMEXO
 40
0.625
  9
$DIMDLI
 40
3.75
  9
$DIMRND
 40
0.0
  9
$DIMDLE
 40
0.0
  9
$DIMEXE
 40
1.25
  9
$DIMTP
 40
0.0
  9
$DIMTM
 40
0.0
  9
$DIMTXT
 40
2.5
  9
$DIMCEN
 40
2.5
  9
$DIMTSZ
 40
0.0
  9
$DIMTOL
 70
0
  9
$DIMLIM
 70
0
  9
$DIMTIH
 70
0
  9
$DIMTOH
 70
0
  9
$DIMSE1
 70
0
  9
$DIMSE2
 70
0
  9
$DIMTAD
 70
1
  9
$DIMZIN
 70
8
  9
$DIMBLK
  1

  9
$DIMASO
 70
1
  9
$DIMSHO
 70
1
  9
$DIMPOST
  1

  9
$DIMAPOST
  1

  9
$DIMALT
 70
0
  9
$DIMALTD
 70
3
  9
$DIMALTF
 40
0.03937007874
  9
$DIMLFAC
 40
1.0
  9
$DIMTOFL
 70
1
  9
$DIMTVP
 40
0.0
  9
$DIMTIX
 70
0
  9
$DIMSOXD
 70
0
  9
$DIMSAH
 70
0
  9
$DIMBLK1
  1

  9
$DIMBLK2
  1

  9
$DIMSTYLE
  2
ISO-25
  9
$DIMCLRD
 70
0
  9
$DIMCLRE
 70
0
  9
$DIMCLRT
 70
0
  9
$DIMTFAC
 40
1.0
  9
$DIMGAP
 40
0.625
  9
$DIMJUST
 70
0
  9
$DIMSD1
 70
0
  9
$DIMSD2
 70
0
  9
$DIMTOLJ
 70
0
  9
$DIMTZIN
 70
8
  9
$DIMALTZ
 70
0
  9
$DIMALTTZ
 70
0
  9
$DIMUPT
 70
0
  9
$DIMDEC
 70
2
  9
$DIMTDEC
 70
2
  9
$DIMALTU
 70
2
  9
$DIMALTTD
 70
3
  9
$DIMTXSTY
  7
Standard
  9
$DIMAUNIT
 70
0
  9
$DIMADEC
 70
0
  9
$DIMALTRND
 40
0.0
  9
$DIMAZIN
 70
0
  9
$DIMDSEP
 70
44
  9
$DIMATFIT
 70
3
  9
$DIMFRAC
 70
0
  9
$DIMLDRBLK
  1

  9
$DIMLUNIT
 70
2
  9
$DIMLWD
 70
-2
  9
$DIMLWE
 70
-2
  9
$DIMTMOVE
 70
0
  9
$DIMFXL
 40
1.0
  9
$DIMFXLON
 70
0
  9
$DIMJOGANG
 40
0.785398163397
  9
$DIMTFILL
 70
0
  9
$DIMTFILLCLR
 70
0
  9
$DIMARCSYM
 70
0
  9
$DIMLTYPE
  6

  9
$DIMLTEX1
  6

  9
$DIMLTEX2
  6

  9
$DIMTXTDIRECTION
 70
0
  9
$LUNITS
 70
2
  9
$LUPREC
 70
4
  9
$SKETCHINC
 40
1.0
  9
$FILLETRAD
 40
10.0
  9
$AUNITS
 70
0
  9
$AUPREC
 70
2
  9
$MENU
  1
.
  9
$ELEVATION
 40
0.0
  9
$PELEVATION
 40
0.0
  9
$THICKNESS
 40
0.0
  9
$LIMCHECK
 70
0
  9
$CHAMFERA
 40
0.0
  9
$CHAMFERB
 40
0.0
  9
$CHAMFERC
 40
0.0
  9
$CHAMFERD
 40
0.0
  9
$SKPOLY
 70
0
  9
$TDCREATE
 40
2460780.404224537
  9
$TDUCREATE
 40
2458532.153996898
  9
$TDUPDATE
 40
2460780.4042939814
  9
$TDUUPDATE
 40
2458532.1544311
  9
$TDINDWG
 40
0.0
  9
$TDUSRTIMER
 40
0.0
  9
$USRTIMER
 70
1
  9
$ANGBASE
 50
0.0
  9
$ANGDIR
 70
0
  9
$PDMODE
 70
0
  9
$PDSIZE
 40
0.0
  9
$PLINEWID
 40
0.0
  9
$SPLFRAME
 70
0
  9
$SPLINETYPE
 70
6
  9
$SPLINESEGS
 70
8
  9
$HANDSEED
  5
D0
  9
$SURFTAB1
 70
6
  9
$SURFTAB2
 70
6
  9
$SURFTYPE
 70
6
  9
$SURFU
 70
6
  9
$SURFV
 70
6
  9
$UCSBASE
  2

  9
$UCSNAME
  2

  9
$UCSORG
 10
0.0
 20
0.0
 30
0.0
  9
$UCSXDIR
 10
1.0
 20
0.0
 30
0.0
  9
$UCSYDIR
 10
0.0
 20
1.0
 30
0.0
  9
$UCSORTHOREF
  2

  9
$UCSORTHOVIEW
 70
0
  9
$UCSORGTOP
 10
0.0
 20
0.0
 30
0.0
  9
$UCSORGBOTTOM
 10
0.0
 20
0.0
 30
0.0
  9
$UCSORGLEFT
 10
0.0
 20
0.0
 30
0.0
  9
$UCSORGRIGHT
 10
0.0
 20
0.0
 30
0.0
  9
$UCSORGFRONT
 10
0.0
 20
0.0
 30
0.0
  9
$UCSORGBACK
 10
0.0
 20
0.0
 30
0.0
  9
$PUCSBASE
  2

  9
$PUCSNAME
  2

  9
$PUCSORG
 10
0.0
 20
0.0
 30
0.0
  9
$PUCSXDIR
 10
1.0
 20
0.0
 30
0.0
  9
$PUCSYDIR
 10
0.0
 20
1.0
 30
0.0
  9
$PUCSORTHOREF
  2

  9
$PUCSORTHOVIEW
 70
0
  9
$PUCSORGTOP
 10
0.0
 20
0.0
 30
0.0
  9
$PUCSORGBOTTOM
 10
0.0
 20
0.0
 30
0.0
  9
$PUCSORGLEFT
 10
0.0
 20
0.0
 30
0.0
  9
$PUCSORGRIGHT
 10
0.0
 20
0.0
 30
0.0
  9
$PUCSORGFRONT
 10
0.0
 20
0.0
 30
0.0
  9
$PUCSORGBACK
 10
0.0
 20
0.0
 30
0.0
  9
$USERI1
 70
0
  9
$USERI2
 70
0
  9
$USERI3
 70
0
  9
$USERI4
 70
0
  9
$USERI5
 70
0
  9
$USERR1
 40
0.0
  9
$USERR2
 40
0.0
  9
$USERR3
 40
0.0
  9
$USERR4
 40
0.0
  9
$USERR5
 40
0.0
  9
$WORLDVIEW
 70
1
  9
$SHADEDGE
 70
3
  9
$SHADEDIF
 70
70
  9
$TILEMODE
 70
1
  9
$MAXACTVP
 70
64
  9
$PINSBASE
 10
0.0
 20
0.0
 30
0.0
  9
$PLIMCHECK
 70
0
  9
$PEXTMIN
 10
1e+20
 20
1e+20
 30
1e+20
  9
$PEXTMAX
 10
-1e+20
 20
-1e+20
 30
-1e+20
  9
$PLIMMIN
 10
0.0
 20
0.0
  9
$PLIMMAX
 10
420.0
 20
297.0
  9
$UNITMODE
 70
0
  9
$VISRETAIN
 70
1
  9
$PLINEGEN
 70
0
  9
$PSLTSCALE
 70
1
  9
$TREEDEPTH
 70
3020
  9
$CMLSTYLE
  2
Standard
  9
$CMLJUST
 70
0
  9
$CMLSCALE
 40
20.0
  9
$PROXYGRAPHICS
 70
1
  9
$MEASUREMENT
 70
1
  9
$CELWEIGHT
370
-1
  9
$ENDCAPS
280
0
  9
$JOINSTYLE
280
0
  9
$LWDISPLAY
290
0
  9
$INSUNITS
 70
6
  9
$HYPERLINKBASE
  1

  9
$STYLESHEET
  1

  9
$XEDIT
290
1
  9
$CEPSNTYPE
380
0
  9
$PSTYLEMODE
290
1
  9
$FINGERPRINTGUID
  2
{01D4615D-8159-42C0-981E-0582CF6878CD}
  9
$VERSIONGUID
  2
{408D8146-F7B8-4DCE-8580-07C7CA9A3372}
  9
$EXTNAMES
290
1
  9
$PSVPSCALE
 40
0.0
  9
$OLESTARTUP
290
0
  9
$SORTENTS
280
127
  9
$INDEXCTL
280
0
  9
$HIDETEXT
280
1
  9
$XCLIPFRAME
280
1
  9
$HALOGAP
280
0
  9
$OBSCOLOR
 70
257
  9
$OBSLTYPE
280
0
  9
$INTERSECTIONDISPLAY
280
0
  9
$INTERSECTIONCOLOR
 70
257
  9
$DIMASSOC
280
2
  9
$PROJECTNAME
  1

  9
$CAMERADISPLAY
290
0
  9
$LENSLENGTH
 40
50.0
  9
$CAMERAHEIGHT
 40
0.0
  9
$STEPSPERSEC
 40
24.0
  9
$STEPSIZE
 40
100.0
  9
$3DDWFPREC
 40
2.0
  9
$PSOLWIDTH
 40
0.005
  9
$PSOLHEIGHT
 40
0.08
  9
$LOFTANG1
 40
1.570796326795
  9
$LOFTANG2
 40
1.570796326795
  9
$LOFTMAG1
 40
0.0
  9
$LOFTMAG2
 40
0.0
  9
$LOFTPARAM
 70
7
  9
$LOFTNORMALS
280
1
  9
$LATITUDE
 40
37.795
  9
$LONGITUDE
 40
-122.394
  9
$NORTHDIRECTION
 40
0.0
  9
$TIMEZONE
 70
-8000
  9
$LIGHTGLYPHDISPLAY
280
1
  9
$TILEMODELIGHTSYNCH
280
1
  9
$CMATERIAL
347
20
  9
$SOLIDHIST
280
0
  9
$SHOWHIST
280
1
  9
$DWFFRAME
280
2
  9
$DGNFRAME
280
2
  9
$REALWORLDSCALE
290
1
  9
$INTERFERECOLOR
 62
256
  9
$CSHADOW
280
0
  9
$SHADOWPLANELOCATION
 40
0.0
  0
ENDSEC
  0
SECTION
  2
CLASSES
  0
CLASS
  1
ACDBDICTIONARYWDFLT
  2
AcDbDictionaryWithDefault
  3
ObjectDBX Classes
 90
0
 91
0
280
0
281
0
  0
CLASS
  1
SUN
  2
AcDbSun
  3
SCENEOE
 90
1153
 91
0
280
0
281
0
  0
CLASS
  1
VISUALSTYLE
  2
AcDbVisualStyle
  3
ObjectDBX Classes
 90
4095
 91
0
280
0
281
0
  0
CLASS
  1
MATERIAL
  2
AcDbMaterial
  3
ObjectDBX Classes
 90
1153
 91
0
280
0
281
0
  0
CLASS
  1
SCALE
  2
AcDbScale
  3
ObjectDBX Classes
 90
1153
 91
0
280
0
281
0
  0
CLASS
  1
TABLESTYLE
  2
AcDbTableStyle
  3
ObjectDBX Classes
 90
4095
 91
0
280
0
281
0
  0
CLASS
  1
MLEADERSTYLE
  2
AcDbMLeaderStyle
  3
ACDB_MLEADERSTYLE_CLASS
 90
4095
 91
0
280
0
281
0
  0
CLASS
  1
DICTIONARYVAR
  2
AcDbDictionaryVar
  3
ObjectDBX Classes
 90
0
 91
0
280
0
281
0
  0
CLASS
  1
CELLSTYLEMAP
  2
AcDbCellStyleMap
  3
ObjectDBX Classes
 90
1152
 91
0
280
0
281
0
  0
CLASS
  1
MENTALRAYRENDERSETTINGS
  2
AcDbMentalRayRenderSettings
  3
SCENEOE
 90
1024
 91
0
280
0
281
0
  0
CLASS
  1
ACDBDETAILVIEWSTYLE
  2
AcDbDetailViewStyle
  3
ObjectDBX Classes
 90
1025
 91
0
280
0
281
0
  0
CLASS
  1
ACDBSECTIONVIEWSTYLE
  2
AcDbSectionViewStyle
  3
ObjectDBX Classes
 90
1025
 91
0
280
0
281
0
  0
CLASS
  1
RASTERVARIABLES
  2
AcDbRasterVariables
  3
ISM
 90
0
 91
0
280
0
281
0
  0
CLASS
  1
ACDBPLACEHOLDER
  2
AcDbPlaceHolder
  3
ObjectDBX Classes
 90
0
 91
0
280
0
281
0
  0
CLASS
  1
LAYOUT
  2
AcDbLayout
  3
ObjectDBX Classes
 90
0
 91
0
280
0
281
0
  0
ENDSEC
  0
SECTION
  2
TABLES
  0
TABLE
  2
VPORT
  5
8
330
0
100
AcDbSymbolTable
 70
1
  0
VPORT
  5
23
330
8
100
AcDbSymbolTableRecord
100
AcDbViewportTableRecord
  2
*Active
 70
0
 10
0.0
 20
0.0
 11
1.0
 21
1.0
 12
0.0
 22
0.0
 13
0.0
 23
0.0
 14
0.5
 24
0.5
 15
0.5
 25
0.5
 16
0.0
 26
0.0
 36
1.0
 17
0.0
 27
0.0
 37
0.0
 40
1000.0
 41
1.34
 42
50.0
 43
0.0
 44
0.0
 50
0.0
 51
0.0
 71
0
 72
1000
 73
1
 74
3
 75
0
 76
0
 77
0
 78
0
281
0
 65
0
146
0.0
  0
ENDTAB
  0
TABLE
  2
LTYPE
  5
2
330
0
100
AcDbSymbolTable
 70
3
  0
LTYPE
  5
24
330
2
100
AcDbSymbolTableRecord
100
AcDbLinetypeTableRecord
  2
ByBlock
 70
0
  3

 72
65
 73
0
 40
0.0
  0
LTYPE
  5
25
330
2
100
AcDbSymbolTableRecord
100
AcDbLinetypeTableRecord
  2
ByLayer
 70
0
  3

 72
65
 73
0
 40
0.0
  0
LTYPE
  5
26
330
2
100
AcDbSymbolTableRecord
100
AcDbLinetypeTableRecord
  2
Continuous
 70
0
  3

 72
65
 73
0
 40
0.0
  0
ENDTAB
  0
TABLE
  2
LAYER
  5
1
330
0
100
AcDbSymbolTable
 70
2
  0
LAYER
  5
27
330
1
100
AcDbSymbolTableRecord
100
AcDbLayerTableRecord
  2
0
 70
0
 62
7
  6
Continuous
370
-3
390
13
347
21
  0
LAYER
  5
28
330
1
100
AcDbSymbolTableRecord
100
AcDbLayerTableRecord
  2
Defpoints
 70
0
 62
7
  6
Continuous
290
0
370
-3
390
13
347
21
  0
ENDTAB
  0
TABLE
  2
STYLE
  5
5
330
0
100
AcDbSymbolTable
 70
1
  0
STYLE
  5
29
330
5
100
AcDbSymbolTableRecord
100
AcDbTextStyleTableRecord
  2
Standard
 70
0
 40
0.0
 41
1.0
 50
0.0
 71
0
 42
2.5
  3
txt
  4

  0
ENDTAB
  0
TABLE
  2
VIEW
  5
7
330
0
100
AcDbSymbolTable
 70
0
  0
ENDTAB
  0
TABLE
  2
UCS
  5
6
330
0
100
AcDbSymbolTable
 70
0
  0
ENDTAB
  0
TABLE
  2
APPID
  5
3
330
0
100
AcDbSymbolTable
 70
3
  0
APPID
  5
2A
330
3
100
AcDbSymbolTableRecord
100
AcDbRegAppTableRecord
  2
ACAD
 70
0
  0
APPID
  5
CD
330
3
100
AcDbSymbolTableRecord
100
AcDbRegAppTableRecord
  2
HATCHBACKGROUNDCOLOR
 70
0
  0
APPID
  5
CE
330
3
100
AcDbSymbolTableRecord
100
AcDbRegAppTableRecord
  2
EZDXF
 70
0
  0
ENDTAB
  0
TABLE
  2
DIMSTYLE
  5
4
330
0
100
AcDbSymbolTable
 70
1
100
AcDbDimStyleTable
  0
DIMSTYLE
105
2B
330
4
100
AcDbSymbolTableRecord
100
AcDbDimStyleTableRecord
  2
Standard
 70
0
 40
1.0
 41
2.5
 42
0.625
 43
3.75
 44
1.25
 45
0.0
 46
0.0
 47
0.0
 48
0.0
 49
2.5
140
2.5
141
2.5
142
0.0
143
0.03937007874
144
1.0
145
0.0
146
1.0
147
0.625
148
0.0
 69
0
 70
0
 71
0
 72
0
 73
0
 74
0
 75
0
 76
0
 77
1
 78
8
 79
3
170
0
171
3
172
1
173
0
174
0
175
0
176
0
177
0
178
0
179
2
271
2
272
2
273
2
274
3
275
0
276
0
277
2
278
44
279
0
280
0
281
0
282
0
283
0
284
8
285
0
286
0
288
0
289
3
290
0
371
-2
372
-2
  0
ENDTAB
  0
TABLE
  2
BLOCK_RECORD
  5
9
330
0
100
AcDbSymbolTable
 70
2
  0
BLOCK_RECORD
  5
17
330
9
100
AcDbSymbolTableRecord
100
AcDbBlockTableRecord
  2
*Model_Space
340
1A
 70
0
280
1
281
0
  0
BLOCK_RECORD
  5
1B
330
9
100
AcDbSymbolTableRecord
100
AcDbBlockTableRecord
  2
*Paper_Space
340
1E
 70
0
280
1
281
0
  0
ENDTAB
  0
ENDSEC
  0
SECTION
  2
BLOCKS
  0
BLOCK
  5
18
330
17
100
AcDbEntity
  8
0
100
AcDbBlockBegin
  2
*Model_Space
 70
0
 10
0.0
 20
0.0
 30
0.0
  3
*Model_Space
  1

  0
ENDBLK
  5
19
330
17
100
AcDbEntity
  8
0
100
AcDbBlockEnd
  0
BLOCK
  5
1C
330
1B
100
AcDbEntity
  8
0
100
AcDbBlockBegin
  2
*Paper_Space
 70
0
 10
0.0
 20
0.0
 30
0.0
  3
*Paper_Space
  1

  0
ENDBLK
  5
1D
330
1B
100
AcDbEntity
  8
0
100
AcDbBlockEnd
  0
ENDSEC
  0
SECTION
  2
ENTITIES
  0
LWPOLYLINE
  5
2F
330
17
100
AcDbEntity
  8
0
100
AcDbPolyline
 90
6
 70
1
 10
49.76
 20
40.68
 10
50.120000000000005
 20
40.88
 10
50.44
 20
41.160000000000004
 10
50.44
 20
41.28
 10
50.52
 20
41.2
 10
50.160000000000004
 20
40.88
  0
LWPOLYLINE
  5
30
330
17
100
AcDbEntity
  8
0
100
AcDbPolyline
 90
9
 70
1
 10
50.36
 20
41.28
 10
48.96
 20
40.96
 10
49.32
 20
40.68
 10
47.96
 20
41.4
 10
49.480000000000004
 20
41.4
 10
49.0
 20
41.08
 10
49.44
 20
41.4
 10
48.0
 20
41.4
 10
48.88
 20
40.88
  0
LWPOLYLINE
  5
31
330
17
100
AcDbEntity
  8
0
100
AcDbPolyline
 90
2
 70
1
 10
49.92
 20
40.64
 10
51.08
 20
41.04
  0
LWPOLYLINE
  5
32
330
17
100
AcDbEntity
  8
0
100
AcDbPolyline
 90
6
 70
1
 10
46.480000000000004
 20
41.2
 10
48.44
 20
40.96
 10
46.6
 20
41.24
 10
47.28
 20
40.6
 10
48.0
 20
40.800000000000004
 10
47.28
 20
40.6
  0
LWPOLYLINE
  5
33
330
17
100
AcDbEntity
  8
0
100
AcDbPolyline
 90
10
 70
1
 10
45.88
 20
40.64
 10
45.76
 20
40.6
 10
45.480000000000004
 20
40.72
 10
45.36
 20
40.84
 10
45.4
 20
40.96
 10
45.36
 20
40.88
 10
45.76
 20
40.6
 10
45.88
 20
40.76
 10
45.480000000000004
 20
40.96
 10
45.84
 20
40.84
  0
LWPOLYLINE
  5
34
330
17
100
AcDbEntity
  8
0
100
AcDbPolyline
 90
4
 70
1
 10
74.04
 20
40.56
 10
75.12
 20
41.4
 10
76.04
 20
42.6
 10
75.12
 20
41.36
  0
LWPOLYLINE
  5
35
330
17
100
AcDbEntity
  8
0
100
AcDbPolyline
 90
4
 70
1
 10
50.2
 20
40.480000000000004
 10
49.76
 20
40.52
 10
49.480000000000004
 20
40.68
 10
49.800000000000004
 20
40.52
  0
LWPOLYLINE
  5
36
330
17
100
AcDbEntity
  8
0
100
AcDbPolyline
 90
8
 70
1
 10
48.44
 20
40.36
 10
48.32
 20
40.52
 10
48.32
 20
40.68
 10
48.480000000000004
 20
40.84
 10
48.64
 20
40.88
 10
48.76
 20
40.72
 10
48.72
 20
40.56
 10
48.64
 20
40.44
  0
LWPOLYLINE
  5
37
330
17
100
AcDbEntity
  8
0
100
AcDbPolyline
 90
14
 70
1
 10
47.800000000000004
 20
40.44
 10
47.800000000000004
 20
40.6
 10
48.0
 20
40.64
 10
47.800000000000004
 20
40.56
 10
47.800000000000004
 20
40.480000000000004
 10
48.0
 20
40.36
 10
48.120000000000005
 20
40.480000000000004
 10
48.08
 20
40.68
 10
48.28
 20
40.84
 10
48.28
 20
40.76
 10
48.2
 20
40.800000000000004
 10
48.120000000000005
 20
40.68
 10
48.160000000000004
 20
40.4
 10
47.92
 20
40.36
  0
LWPOLYLINE
  5
38
330
17
100
AcDbEntity
  8
0
100
AcDbPolyline
 90
4
 70
1
 10
49.4
 20
40.2
 10
49.68
 20
40.4
 10
50.08
 20
40.36
 10
49.68
 20
40.4
  0
LWPOLYLINE
  5
39
330
17
100
AcDbEntity
  8
0
100
AcDbPolyline
 90
11
 70
1
 10
47.68
 20
40.12
 10
47.800000000000004
 20
40.32
 10
47.92
 20
40.160000000000004
 10
48.28
 20
40.32
 10
48.4
 20
40.12
 10
48.2
 20
40.12
 10
48.32
 20
40.2
 10
48.24
 20
40.32
 10
48.04
 20
40.160000000000004
 10
47.92
 20
40.160000000000004
 10
47.84
 20
40.28
  0
LWPOLYLINE
  5
3A
330
17
100
AcDbEntity
  8
0
100
AcDbPolyline
 90
5
 70
1
 10
47.28
 20
40.12
 10
47.08
 20
40.36
 10
46.44
 20
40.32
 10
47.12
 20
40.36
 10
47.28
 20
40.2
  0
LWPOLYLINE
  5
3B
330
17
100
AcDbEntity
  8
0
100
AcDbPolyline
 90
12
 70
1
 10
48.68
 20
40.12
 10
48.6
 20
40.32
 10
48.72
 20
40.08
 10
48.84
 20
40.2
 10
48.92
 20
40.68
 10
49.160000000000004
 20
40.52
 10
48.96
 20
40.28
 10
49.0
 20
40.08
 10
49.36
 20
40.6
 10
49.08
 20
40.08
 10
48.96
 20
40.04
 10
48.88
 20
40.32
  0
LWPOLYLINE
  5
3C
330
17
100
AcDbEntity
  8
0
100
AcDbPolyline
 90
9
 70
1
 10
47.36
 20
39.96
 10
46.2
 20
40.2
 10
46.12
 20
40.68
 10
46.92
 20
40.68
 10
46.160000000000004
 20
40.68
 10
46.160000000000004
 20
40.36
 10
47.12
 20
40.52
 10
46.32
 20
40.44
 10
46.2
 20
40.24
  0
LWPOLYLINE
  5
3D
330
17
100
AcDbEntity
  8
0
100
AcDbPolyline
 90
8
 70
1
 10
47.28
 20
40.4
 10
47.6
 20
40.44
 10
47.28
 20
40.4
 10
47.56
 20
39.92
 10
48.92
 20
39.84
 10
51.2
 20
40.96
 10
48.92
 20
39.84
 10
47.56
 20
39.92
  0
LWPOLYLINE
  5
3E
330
17
100
AcDbEntity
  8
0
100
AcDbPolyline
 90
2
 70
1
 10
0.0
 20
39.56
 10
7.72
 20
39.68
  0
LWPOLYLINE
  5
3F
330
17
100
AcDbEntity
  8
0
100
AcDbPolyline
 90
9
 70
1
 10
50.72
 20
39.56
 10
50.76
 20
39.64
 10
50.88
 20
39.72
 10
51.08
 20
39.72
 10
51.160000000000004
 20
39.56
 10
51.04
 20
39.56
 10
51.0
 20
39.52
 10
50.84
 20
39.52
 10
50.800000000000004
 20
39.56
  0
LWPOLYLINE
  5
40
330
17
100
AcDbEntity
  8
0
100
AcDbPolyline
 90
6
 70
1
 10
50.24
 20
39.28
 10
50.32
 20
39.56
 10
50.4
 20
39.68
 10
50.4
 20
39.84
 10
50.4
 20
39.68
 10
50.32
 20
39.56
  0
LWPOLYLINE
  5
41
330
17
100
AcDbEntity
  8
0
100
AcDbPolyline
 90
2
 70
1
 10
46.160000000000004
 20
39.160000000000004
 10
46.2
 20
39.68
  0
LWPOLYLINE
  5
42
330
17
100
AcDbEntity
  8
0
100
AcDbPolyline
 90
10
 70
1
 10
49.84
 20
39.08
 10
49.88
 20
39.64
 10
49.800000000000004
 20
39.160000000000004
 10
49.92
 20
39.08
 10
50.24
 20
39.84
 10
50.6
 20
39.96
 10
50.64
 20
39.88
 10
50.480000000000004
 20
40.0
 10
50.24
 20
39.800000000000004
 10
50.0
 20
39.12
  0
LWPOLYLINE
  5
43
330
17
100
AcDbEntity
  8
0
100
AcDbPolyline
 90
8
 70
1
 10
49.480000000000004
 20
38.88
 10
49.76
 20
39.72
 10
49.96
 20
39.92
 10
50.160000000000004
 20
39.84
 10
50.0
 20
39.52
 10
50.120000000000005
 20
39.76
 10
50.04
 20
39.88
 10
49.72
 20
39.64
  0
LWPOLYLINE
  5
44
330
17
100
AcDbEntity
  8
0
100
AcDbPolyline
 90
14
 70
1
 10
49.36
 20
38.76
 10
51.0
 20
39.2
 10
50.56
 20
39.52
 10
50.92
 20
39.96
 10
51.88
 20
39.96
 10
51.36
 20
39.12
 10
51.72
 20
39.92
 10
51.08
 20
40.0
 10
50.56
 20
39.56
 10
51.08
 20
39.24
 10
50.480000000000004
 20
39.2
 10
51.120000000000005
 20
39.04
 10
51.4
 20
39.84
 10
51.160000000000004
 20
39.04
  0
LWPOLYLINE
  5
45
330
17
100
AcDbEntity
  8
0
100
AcDbPolyline
 90
6
 70
1
 10
48.84
 20
38.72
 10
48.84
 20
39.08
 10
49.04
 20
39.36
 10
49.2
 20
39.44
 10
49.24
 20
39.2
 10
49.04
 20
38.800000000000004
  0
LWPOLYLINE
  5
46
330
17
100
AcDbEntity
  8
0
100
AcDbPolyline
 90
12
 70
1
 10
46.44
 20
38.68
 10
46.04
 20
39.08
 10
46.12
 20
39.88
 10
46.44
 20
39.76
 10
46.36
 20
39.2
 10
46.64
 20
39.04
 10
46.480000000000004
 20
38.800000000000004
 10
46.6
 20
39.0
 10
46.36
 20
39.160000000000004
 10
46.44
 20
39.72
 10
46.08
 20
39.800000000000004
 10
46.04
 20
39.12
  0
LWPOLYLINE
  5
47
330
17
100
AcDbEntity
  8
0
100
AcDbPolyline
 90
5
 70
1
 10
48.480000000000004
 20
38.64
 10
48.160000000000004
 20
39.160000000000004
 10
48.160000000000004
 20
39.36
 10
48.2
 20
39.36
 10
48.160000000000004
 20
39.2
  0
LWPOLYLINE
  5
48
330
17
100
AcDbEntity
  8
0
100
AcDbPolyline
 90
8
 70
1
 10
47.92
 20
38.64
 10
47.44
 20
39.6
 10
47.88
 20
39.800000000000004
 10
48.76
 20
39.68
 10
48.72
 20
39.480000000000004
 10
48.72
 20
39.68
 10
47.92
 20
39.800000000000004
 10
47.480000000000004
 20
39.6
  0
LWPOLYLINE
  5
49
330
17
100
AcDbEntity
  8
0
100
AcDbPolyline
 90
9
 70
1
 10
45.12
 20
38.64
 10
45.2
 20
38.72
 10
45.32
 20
38.96
 10
45.28
 20
39.0
 10
45.32
 20
38.96
 10
45.28
 20
38.92
 10
45.32
 20
38.88
 10
45.24
 20
38.800000000000004
 10
45.2
 20
38.68
  0
LWPOLYLINE
  5
4A
330
17
100
AcDbEntity
  8
0
100
AcDbPolyline
 90
11
 70
1
 10
48.68
 20
38.56
 10
48.56
 20
38.96
 10
48.88
 20
39.480000000000004
 10
49.6
 20
39.6
 10
48.88
 20
39.44
 10
48.56
 20
38.96
 10
48.72
 20
38.56
 10
49.32
 20
38.88
 10
49.4
 20
39.44
 10
49.4
 20
39.0
 10
49.04
 20
38.6
  0
LWPOLYLINE
  5
4B
330
17
100
AcDbEntity
  8
0
100
AcDbPolyline
 90
8
 70
1
 10
44.88
 20
38.52
 10
44.52
 20
38.68
 10
44.28
 20
40.12
 10
44.4
 20
40.4
 10
44.800000000000004
 20
40.36
 10
44.88
 20
39.88
 10
45.24
 20
39.76
 10
45.28
 20
39.160000000000004
  0
LWPOLYLINE
  5
4C
330
17
100
AcDbEntity
  8
0
100
AcDbPolyline
 90
6
 70
1
 10
46.52
 20
38.44
 10
46.88
 20
39.56
 10
47.36
 20
39.6
 10
47.12
 20
38.800000000000004
 10
47.32
 20
39.56
 10
47.0
 20
39.64
  0
LWPOLYLINE
  5
4D
330
17
100
AcDbEntity
  8
0
100
AcDbPolyline
 90
8
 70
1
 10
46.64
 20
38.4
 10
47.0
 20
38.52
 10
46.92
 20
38.72
 10
46.76
 20
38.72
 10
46.96
 20
38.76
 10
47.12
 20
39.480000000000004
 10
46.96
 20
38.76
 10
47.0
 20
38.480000000000004
  0
LWPOLYLINE
  5
4E
330
17
100
AcDbEntity
  8
0
100
AcDbPolyline
 90
5
 70
1
 10
48.44
 20
38.36
 10
48.44
 20
38.4
 10
48.56
 20
38.52
 10
48.56
 20
38.56
 10
48.6
 20
38.52
  0
LWPOLYLINE
  5
4F
330
17
100
AcDbEntity
  8
0
100
AcDbPolyline
 90
9
 70
1
 10
45.88
 20
38.28
 10
45.84
 20
38.32
 10
45.84
 20
38.4
 10
45.800000000000004
 20
38.44
 10
45.68
 20
38.44
 10
45.64
 20
38.4
 10
45.64
 20
38.44
 10
45.84
 20
38.44
 10
45.84
 20
38.32
  0
LWPOLYLINE
  5
50
330
17
100
AcDbEntity
  8
0
100
AcDbPolyline
 90
8
 70
1
 10
47.24
 20
38.44
 10
47.76
 20
38.68
 10
47.28
 20
38.44
 10
48.24
 20
38.32
 10
47.76
 20
39.44
 10
48.64
 20
39.52
 10
47.800000000000004
 20
39.44
 10
48.28
 20
38.32
  0
LWPOLYLINE
  5
51
330
17
100
AcDbEntity
  8
0
100
AcDbPolyline
 90
5
 70
1
 10
45.92
 20
37.96
 10
44.68
 20
38.04
 10
44.68
 20
38.12
 10
45.480000000000004
 20
38.36
 10
45.84
 20
38.2
  0
LWPOLYLINE
  5
52
330
17
100
AcDbEntity
  8
0
100
AcDbPolyline
 90
8
 70
1
 10
48.68
 20
38.0
 10
48.96
 20
37.92
 10
49.44
 20
38.2
 10
48.96
 20
37.92
 10
48.72
 20
37.92
 10
48.68
 20
38.12
 10
49.64
 20
38.36
 10
48.72
 20
38.12
  0
LWPOLYLINE
  5
53
330
17
100
AcDbEntity
  8
0
100
AcDbPolyline
 90
8
 70
1
 10
7.92
 20
37.88
 10
7.8
 20
38.04
 10
7.88
 20
38.160000000000004
 10
7.92
 20
38.12
 10
7.96
 20
38.160000000000004
 10
8.040000000000001
 20
38.160000000000004
 10
8.120000000000001
 20
38.08
 10
8.120000000000001
 20
37.92
  0
LWPOLYLINE
  5
54
330
17
100
AcDbEntity
  8
0
100
AcDbPolyline
 90
6
 70
1
 10
6.32
 20
37.96
 10
6.24
 20
37.800000000000004
 10
6.04
 20
37.800000000000004
 10
5.96
 20
38.160000000000004
 10
4.28
 20
38.12
 10
5.96
 20
38.160000000000004
  0
LWPOLYLINE
  5
55
330
17
100
AcDbEntity
  8
0
100
AcDbPolyline
 90
2
 70
1
 10
39.4
 20
37.72
 10
39.480000000000004
 20
41.68
  0
LWPOLYLINE
  5
56
330
17
100
AcDbEntity
  8
0
100
AcDbPolyline
 90
9
 70
1
 10
4.2
 20
37.72
 10
4.08
 20
37.84
 10
4.08
 20
38.0
 10
4.32
 20
38.0
 10
4.36
 20
38.04
 10
4.32
 20
38.0
 10
4.4
 20
37.92
 10
4.44
 20
37.76
 10
4.4
 20
37.72
  0
LWPOLYLINE
  5
57
330
17
100
AcDbEntity
  8
0
100
AcDbPolyline
 90
4
 70
1
 10
74.88
 20
37.64
 10
76.12
 20
40.6
 10
76.76
 20
40.52
 10
76.12
 20
40.56
  0
LWPOLYLINE
  5
58
330
17
100
AcDbEntity
  8
0
100
AcDbPolyline
 90
7
 70
1
 10
48.96
 20
37.68
 10
50.160000000000004
 20
37.96
 10
50.160000000000004
 20
38.12
 10
49.72
 20
38.28
 10
49.2
 20
37.92
 10
49.72
 20
38.28
 10
50.24
 20
38.08
  0
LWPOLYLINE
  5
59
330
17
100
AcDbEntity
  8
0
100
AcDbPolyline
 90
7
 70
1
 10
45.96
 20
37.6
 10
45.52
 20
37.6
 10
45.88
 20
37.56
 10
45.96
 20
37.64
 10
45.88
 20
37.76
 10
45.52
 20
37.72
 10
45.92
 20
37.76
  0
LWPOLYLINE
  5
5A
330
17
100
AcDbEntity
  8
0
100
AcDbPolyline
 90
6
 70
1
 10
11.24
 20
37.52
 10
8.76
 20
38.36
 10
6.2
 20
38.2
 10
8.72
 20
38.32
 10
7.96
 20
39.24
 10
9.0
 20
38.2
  0
LWPOLYLINE
  5
5B
330
17
100
AcDbEntity
  8
0
100
AcDbPolyline
 90
9
 70
1
 10
47.36
 20
37.32
 10
47.28
 20
37.44
 10
47.32
 20
37.56
 10
47.480000000000004
 20
37.68
 10
47.64
 20
37.68
 10
47.72
 20
37.56
 10
47.68
 20
37.4
 10
47.52
 20
37.28
 10
47.480000000000004
 20
37.32
  0
LWPOLYLINE
  5
5C
330
17
100
AcDbEntity
  8
0
100
AcDbPolyline
 90
15
 70
1
 10
46.480000000000004
 20
37.480000000000004
 10
46.480000000000004
 20
37.92
 10
46.800000000000004
 20
37.96
 10
46.480000000000004
 20
37.88
 10
46.68
 20
37.76
 10
47.0
 20
38.08
 10
47.800000000000004
 20
37.72
 10
48.4
 20
37.92
 10
47.76
 20
37.68
 10
46.96
 20
38.04
 10
46.64
 20
37.64
 10
47.2
 20
37.6
 10
46.52
 20
37.76
 10
46.480000000000004
 20
37.52
 10
47.08
 20
37.28
  0
LWPOLYLINE
  5
5D
330
17
100
AcDbEntity
  8
0
100
AcDbPolyline
 90
9
 70
1
 10
49.24
 20
37.4
 10
47.68
 20
37.2
 10
49.160000000000004
 20
37.52
 10
47.800000000000004
 20
37.32
 10
48.64
 20
37.72
 10
48.44
 20
38.12
 10
46.44
 20
38.24
 10
48.6
 20
38.12
 10
48.4
 20
37.52
  0
LWPOLYLINE
  5
5E
330
17
100
AcDbEntity
  8
0
100
AcDbPolyline
 90
6
 70
1
 10
48.08
 20
36.92
 10
46.800000000000004
 20
37.04
 10
47.84
 20
36.88
 10
47.92
 20
37.0
 10
46.68
 20
37.2
 10
47.32
 20
37.24
  0
LWPOLYLINE
  5
5F
330
17
100
AcDbEntity
  8
0
100
AcDbPolyline
 90
8
 70
1
 10
39.08
 20
35.56
 10
39.12
 20
35.6
 10
39.24
 20
35.6
 10
39.28
 20
35.64
 10
39.32
 20
35.6
 10
39.28
 20
35.64
 10
39.24
 20
35.6
 10
39.12
 20
35.6
  0
LWPOLYLINE
  5
60
330
17
100
AcDbEntity
  8
0
100
AcDbPolyline
 90
7
 70
1
 10
8.88
 20
35.4
 10
9.28
 20
35.4
 10
9.44
 20
35.28
 10
9.44
 20
35.12
 10
9.36
 20
35.08
 10
9.0
 20
35.08
 10
8.88
 20
35.24
  0
LWPOLYLINE
  5
61
330
17
100
AcDbEntity
  8
0
100
AcDbPolyline
 90
6
 70
1
 10
13.280000000000001
 20
35.160000000000004
 10
12.84
 20
34.96
 10
12.120000000000001
 20
34.96
 10
11.48
 20
36.36
 10
12.76
 20
36.28
 10
13.280000000000001
 20
35.68
  0
LWPOLYLINE
  5
62
330
17
100
AcDbEntity
  8
0
100
AcDbPolyline
 90
10
 70
1
 10
11.76
 20
34.92
 10
11.4
 20
34.92
 10
10.96
 20
35.76
 10
10.48
 20
36.0
 10
10.4
 20
35.72
 10
10.84
 20
34.96
 10
10.44
 20
34.84
 10
9.92
 20
36.160000000000004
 10
10.36
 20
36.36
 10
11.0
 20
36.24
  0
LWPOLYLINE
  5
63
330
17
100
AcDbEntity
  8
0
100
AcDbPolyline
 90
11
 70
1
 10
9.92
 20
34.88
 10
8.76
 20
34.72
 10
8.0
 20
36.0
 10
8.8
 20
34.72
 10
9.76
 20
34.800000000000004
 10
9.96
 20
35.160000000000004
 10
9.32
 20
36.24
 10
8.96
 20
35.68
 10
7.96
 20
36.160000000000004
 10
8.96
 20
35.68
 10
9.36
 20
36.24
  0
LWPOLYLINE
  5
64
330
17
100
AcDbEntity
  8
0
100
AcDbPolyline
 90
10
 70
1
 10
1.2
 20
34.72
 10
1.12
 20
34.68
 10
0.96
 20
34.76
 10
0.84
 20
34.92
 10
0.72
 20
34.92
 10
0.56
 20
34.72
 10
0.56
 20
34.800000000000004
 10
0.72
 20
34.92
 10
0.84
 20
34.92
 10
1.12
 20
34.68
  0
LWPOLYLINE
  5
65
330
17
100
AcDbEntity
  8
0
100
AcDbPolyline
 90
15
 70
1
 10
8.16
 20
34.76
 10
7.04
 20
34.76
 10
6.8
 20
35.28
 10
7.4
 20
35.72
 10
6.48
 20
35.64
 10
6.44
 20
36.0
 10
7.68
 20
35.96
 10
7.96
 20
35.52
 10
7.4
 20
35.12
 10
7.96
 20
35.52
 10
7.640000000000001
 20
35.96
 10
6.4
 20
35.76
 10
7.44
 20
35.72
 10
6.8
 20
35.24
 10
7.08
 20
34.76
  0
LWPOLYLINE
  5
66
330
17
100
AcDbEntity
  8
0
100
AcDbPolyline
 90
6
 70
1
 10
6.68
 20
34.6
 10
6.28
 20
34.6
 10
5.96
 20
35.160000000000004
 10
5.76
 20
35.28
 10
5.88
 20
35.32
 10
6.32
 20
34.6
  0
LWPOLYLINE
  5
67
330
17
100
AcDbEntity
  8
0
100
AcDbPolyline
 90
14
 70
1
 10
6.68
 20
34.68
 10
5.88
 20
36.04
 10
5.44
 20
35.96
 10
5.28
 20
35.24
 10
4.5200000000000005
 20
36.0
 10
5.32
 20
34.52
 10
5.76
 20
34.64
 10
5.8
 20
35.2
 10
5.72
 20
34.56
 10
5.28
 20
34.52
 10
4.44
 20
35.96
 10
5.36
 20
35.28
 10
5.44
 20
36.0
 10
5.92
 20
36.04
  0
LWPOLYLINE
  5
68
330
17
100
AcDbEntity
  8
0
100
AcDbPolyline
 90
8
 70
1
 10
4.68
 20
34.64
 10
4.32
 20
34.4
 10
3.2800000000000002
 20
34.64
 10
2.84
 20
35.08
 10
2.72
 20
35.72
 10
3.12
 20
35.96
 10
4.12
 20
35.72
 10
4.5600000000000005
 20
35.28
  0
LWPOLYLINE
  5
69
330
17
100
AcDbEntity
  8
0
100
AcDbPolyline
 90
14
 70
1
 10
0.4
 20
34.84
 10
0.52
 20
34.96
 10
0.4
 20
34.84
 10
0.44
 20
34.56
 10
0.72
 20
34.24
 10
1.04
 20
34.32
 10
1.0
 20
34.480000000000004
 10
1.12
 20
34.56
 10
1.44
 20
34.52
 10
1.16
 20
34.56
 10
1.04
 20
34.480000000000004
 10
1.08
 20
34.28
 10
0.68
 20
34.24
 10
0.48
 20
34.44
  0
LWPOLYLINE
  5
6A
330
17
100
AcDbEntity
  8
0
100
AcDbPolyline
 90
12
 70
1
 10
64.56
 20
34.160000000000004
 10
64.56
 20
34.36
 10
64.28
 20
34.6
 10
64.4
 20
35.0
 10
65.32000000000001
 20
35.0
 10
65.4
 20
34.84
 10
65.08
 20
34.64
 10
65.32000000000001
 20
34.800000000000004
 10
65.2
 20
35.04
 10
64.52
 20
35.08
 10
64.28
 20
34.6
 10
64.56
 20
34.36
  0
LWPOLYLINE
  5
6B
330
17
100
AcDbEntity
  8
0
100
AcDbPolyline
 90
11
 70
1
 10
3.44
 20
34.24
 10
3.48
 20
34.28
 10
3.44
 20
34.32
 10
3.48
 20
34.36
 10
3.56
 20
34.36
 10
3.6
 20
34.32
 10
3.68
 20
34.32
 10
3.68
 20
34.24
 10
3.72
 20
34.2
 10
3.68
 20
34.160000000000004
 10
3.52
 20
34.160000000000004
  0
LWPOLYLINE
  5
6C
330
17
100
AcDbEntity
  8
0
100
AcDbPolyline
 90
5
 70
1
 10
64.4
 20
34.0
 10
64.44
 20
34.04
 10
64.44
 20
34.08
 10
64.48
 20
34.12
 10
64.48
 20
34.08
  0
LWPOLYLINE
  5
6D
330
17
100
AcDbEntity
  8
0
100
AcDbPolyline
 90
8
 70
1
 10
41.28
 20
33.68
 10
39.36
 20
35.24
 10
39.56
 20
36.12
 10
39.0
 20
35.96
 10
39.04
 20
35.28
 10
39.04
 20
36.04
 10
39.64
 20
36.08
 10
39.32
 20
35.32
  0
LWPOLYLINE
  5
6E
330
17
100
AcDbEntity
  8
0
100
AcDbPolyline
 90
6
 70
1
 10
41.44
 20
33.6
 10
41.44
 20
33.64
 10
41.4
 20
33.68
 10
41.36
 20
33.68
 10
41.4
 20
33.68
 10
41.44
 20
33.64
  0
LWPOLYLINE
  5
6F
330
17
100
AcDbEntity
  8
0
100
AcDbPolyline
 90
2
 70
1
 10
16.28
 20
33.56
 10
18.2
 20
33.72
  0
LWPOLYLINE
  5
70
330
17
100
AcDbEntity
  8
0
100
AcDbPolyline
 90
7
 70
1
 10
64.16
 20
33.52
 10
64.16
 20
33.56
 10
64.2
 20
33.56
 10
64.4
 20
33.76
 10
64.44
 20
33.76
 10
64.24
 20
33.56
 10
64.2
 20
33.56
  0
LWPOLYLINE
  5
71
330
17
100
AcDbEntity
  8
0
100
AcDbPolyline
 90
9
 70
1
 10
62.480000000000004
 20
33.480000000000004
 10
62.440000000000005
 20
33.52
 10
62.480000000000004
 20
33.56
 10
62.440000000000005
 20
33.64
 10
62.480000000000004
 20
33.72
 10
62.56
 20
33.68
 10
62.6
 20
33.72
 10
62.72
 20
33.6
 10
62.64
 20
33.480000000000004
  0
LWPOLYLINE
  5
72
330
17
100
AcDbEntity
  8
0
100
AcDbPolyline
 90
4
 70
1
 10
55.64
 20
33.68
 10
55.08
 20
33.480000000000004
 10
54.32
 20
33.68
 10
55.08
 20
33.480000000000004
  0
LWPOLYLINE
  5
73
330
17
100
AcDbEntity
  8
0
100
AcDbPolyline
 90
6
 70
1
 10
72.64
 20
33.44
 10
72.0
 20
33.64
 10
71.88
 20
33.8
 10
72.64
 20
33.64
 10
72.12
 20
33.8
 10
71.88
 20
33.76
  0
LWPOLYLINE
  5
74
330
17
100
AcDbEntity
  8
0
100
AcDbPolyline
 90
7
 70
1
 10
55.68
 20
33.6
 10
56.92
 20
33.8
 10
58.160000000000004
 20
34.64
 10
59.64
 20
34.480000000000004
 10
58.08
 20
34.6
 10
56.6
 20
33.4
 10
56.64
 20
33.76
  0
LWPOLYLINE
  5
75
330
17
100
AcDbEntity
  8
0
100
AcDbPolyline
 90
10
 70
1
 10
60.0
 20
33.52
 10
60.2
 20
33.56
 10
60.4
 20
33.36
 10
60.52
 20
33.6
 10
60.72
 20
33.64
 10
60.92
 20
33.44
 10
61.64
 20
33.88
 10
60.92
 20
33.44
 10
60.6
 20
33.64
 10
60.4
 20
33.32
  0
LWPOLYLINE
  5
76
330
17
100
AcDbEntity
  8
0
100
AcDbPolyline
 90
11
 70
1
 10
17.92
 20
33.32
 10
17.76
 20
33.32
 10
17.68
 20
33.4
 10
17.68
 20
33.52
 10
17.76
 20
33.52
 10
17.8
 20
33.56
 10
17.84
 20
33.52
 10
17.88
 20
33.52
 10
17.92
 20
33.480000000000004
 10
17.92
 20
33.4
 10
17.96
 20
33.36
  0
LWPOLYLINE
  5
77
330
17
100
AcDbEntity
  8
0
100
AcDbPolyline
 90
2
 70
1
 10
12.88
 20
33.4
 10
16.0
 20
33.480000000000004
  0
LWPOLYLINE
  5
78
330
17
100
AcDbEntity
  8
0
100
AcDbPolyline
 90
12
 70
1
 10
16.04
 20
33.28
 10
16.080000000000002
 20
33.32
 10
16.080000000000002
 20
33.4
 10
16.12
 20
33.44
 10
16.16
 20
33.4
 10
16.2
 20
33.44
 10
16.32
 20
33.4
 10
16.32
 20
33.32
 10
16.28
 20
33.28
 10
16.28
 20
33.24
 10
16.12
 20
33.24
 10
16.080000000000002
 20
33.28
  0
LWPOLYLINE
  5
79
330
17
100
AcDbEntity
  8
0
100
AcDbPolyline
 90
10
 70
1
 10
59.480000000000004
 20
33.2
 10
59.72
 20
33.4
 10
59.92
 20
34.32
 10
59.76
 20
34.44
 10
59.6
 20
34.0
 10
59.480000000000004
 20
34.04
 10
59.6
 20
34.04
 10
59.68
 20
34.4
 10
60.0
 20
34.480000000000004
 10
59.72
 20
33.36
  0
LWPOLYLINE
  5
7A
330
17
100
AcDbEntity
  8
0
100
AcDbPolyline
 90
7
 70
1
 10
14.4
 20
33.28
 10
14.44
 20
33.32
 10
14.56
 20
33.32
 10
14.6
 20
33.36
 10
14.76
 20
33.24
 10
14.68
 20
33.12
 10
14.48
 20
33.12
  0
LWPOLYLINE
  5
7B
330
17
100
AcDbEntity
  8
0
100
AcDbPolyline
 90
9
 70
1
 10
55.56
 20
33.08
 10
55.480000000000004
 20
33.28
 10
55.32
 20
33.44
 10
55.52
 20
33.24
 10
55.64
 20
33.36
 10
55.68
 20
33.52
 10
55.6
 20
33.24
 10
55.56
 20
33.28
 10
55.52
 20
33.24
  0
LWPOLYLINE
  5
7C
330
17
100
AcDbEntity
  8
0
100
AcDbPolyline
 90
4
 70
1
 10
42.64
 20
33.12
 10
40.84
 20
33.72
 10
38.88
 20
35.28
 10
40.88
 20
33.72
  0
LWPOLYLINE
  5
7D
330
17
100
AcDbEntity
  8
0
100
AcDbPolyline
 90
8
 70
1
 10
12.8
 20
33.04
 10
12.76
 20
33.08
 10
12.8
 20
33.12
 10
12.8
 20
33.2
 10
12.88
 20
33.2
 10
12.96
 20
33.24
 10
13.08
 20
33.160000000000004
 10
13.0
 20
33.0
  0
LWPOLYLINE
  5
7E
330
17
100
AcDbEntity
  8
0
100
AcDbPolyline
 90
10
 70
1
 10
36.68
 20
32.88
 10
36.68
 20
32.92
 10
36.64
 20
32.96
 10
36.64
 20
33.08
 10
36.68
 20
33.08
 10
36.76
 20
33.0
 10
36.68
 20
33.08
 10
36.64
 20
33.04
 10
36.64
 20
32.96
 10
36.68
 20
32.92
  0
LWPOLYLINE
  5
7F
330
17
100
AcDbEntity
  8
0
100
AcDbPolyline
 90
12
 70
1
 10
11.4
 20
32.92
 10
11.36
 20
32.92
 10
11.32
 20
32.88
 10
11.200000000000001
 20
32.88
 10
11.120000000000001
 20
32.96
 10
11.120000000000001
 20
33.0
 10
11.16
 20
33.04
 10
11.16
 20
33.08
 10
11.200000000000001
 20
33.08
 10
11.24
 20
33.12
 10
11.36
 20
33.04
 10
11.36
 20
32.96
  0
LWPOLYLINE
  5
80
330
17
100
AcDbEntity
  8
0
100
AcDbPolyline
 90
2
 70
1
 10
2.52
 20
32.88
 10
18.080000000000002
 20
33.92
  0
LWPOLYLINE
  5
81
330
17
100
AcDbEntity
  8
0
100
AcDbPolyline
 90
10
 70
1
 10
9.48
 20
32.76
 10
9.44
 20
32.8
 10
9.44
 20
32.96
 10
9.48
 20
33.0
 10
9.6
 20
33.0
 10
9.68
 20
32.92
 10
9.68
 20
32.8
 10
9.6
 20
32.8
 10
9.56
 20
32.76
 10
9.52
 20
32.8
  0
LWPOLYLINE
  5
82
330
17
100
AcDbEntity
  8
0
100
AcDbPolyline
 90
9
 70
1
 10
62.480000000000004
 20
32.72
 10
62.480000000000004
 20
32.88
 10
62.56
 20
32.96
 10
62.68
 20
33.28
 10
62.72
 20
33.28
 10
62.6
 20
33.08
 10
62.56
 20
32.92
 10
62.480000000000004
 20
32.84
 10
62.52
 20
32.72
  0
LWPOLYLINE
  5
83
330
17
100
AcDbEntity
  8
0
100
AcDbPolyline
 90
11
 70
1
 10
65.44
 20
32.64
 10
65.28
 20
32.64
 10
65.24
 20
32.72
 10
65.12
 20
32.68
 10
65.24
 20
32.72
 10
65.36
 20
33.08
 10
65.16
 20
33.2
 10
65.08
 20
33.160000000000004
 10
65.32000000000001
 20
33.160000000000004
 10
65.36
 20
33.08
 10
65.24
 20
32.72
  0
LWPOLYLINE
  5
84
330
17
100
AcDbEntity
  8
0
100
AcDbPolyline
 90
12
 70
1
 10
7.68
 20
32.72
 10
7.72
 20
32.84
 10
7.76
 20
32.84
 10
7.72
 20
32.76
 10
7.84
 20
32.64
 10
7.92
 20
32.64
 10
8.0
 20
32.76
 10
7.84
 20
32.88
 10
7.92
 20
32.88
 10
8.0
 20
32.8
 10
7.96
 20
32.64
 10
7.84
 20
32.64
  0
LWPOLYLINE
  5
85
330
17
100
AcDbEntity
  8
0
100
AcDbPolyline
 90
8
 70
1
 10
64.52
 20
32.6
 10
64.64
 20
32.6
 10
64.84
 20
32.72
 10
64.88
 20
33.0
 10
65.0
 20
33.2
 10
64.88
 20
33.0
 10
64.84
 20
32.72
 10
64.76
 20
32.64
  0
LWPOLYLINE
  5
86
330
17
100
AcDbEntity
  8
0
100
AcDbPolyline
 90
8
 70
1
 10
5.96
 20
32.56
 10
5.96
 20
32.72
 10
6.0
 20
32.76
 10
6.16
 20
32.76
 10
6.24
 20
32.68
 10
6.24
 20
32.56
 10
6.2
 20
32.52
 10
6.04
 20
32.52
  0
LWPOLYLINE
  5
87
330
17
100
AcDbEntity
  8
0
100
AcDbPolyline
 90
9
 70
1
 10
45.4
 20
32.52
 10
45.32
 20
32.44
 10
45.28
 20
32.480000000000004
 10
45.24
 20
32.44
 10
45.12
 20
32.480000000000004
 10
44.88
 20
32.72
 10
45.0
 20
32.8
 10
45.24
 20
32.64
 10
45.36
 20
32.64
  0
LWPOLYLINE
  5
88
330
17
100
AcDbEntity
  8
0
100
AcDbPolyline
 90
12
 70
1
 10
64.12
 20
33.160000000000004
 10
63.36
 20
32.24
 10
62.52
 20
32.4
 10
63.52
 20
32.8
 10
63.96
 20
35.0
 10
60.120000000000005
 20
34.52
 10
59.92
 20
33.480000000000004
 10
60.2
 20
34.6
 10
64.0
 20
35.0
 10
63.6
 20
32.8
 10
62.52
 20
32.44
 10
63.36
 20
32.24
  0
LWPOLYLINE
  5
89
330
17
100
AcDbEntity
  8
0
100
AcDbPolyline
 90
4
 70
1
 10
65.28
 20
32.2
 10
65.88
 20
33.64
 10
70.4
 20
33.96
 10
66.0
 20
33.68
  0
LWPOLYLINE
  5
8A
330
17
100
AcDbEntity
  8
0
100
AcDbPolyline
 90
2
 70
1
 10
35.72
 20
32.160000000000004
 10
38.76
 20
35.2
  0
LWPOLYLINE
  5
8B
330
17
100
AcDbEntity
  8
0
100
AcDbPolyline
 90
7
 70
1
 10
35.36
 20
32.04
 10
35.36
 20
32.2
 10
35.4
 20
32.24
 10
35.52
 20
32.24
 10
35.56
 20
32.2
 10
35.56
 20
32.08
 10
35.52
 20
32.04
  0
LWPOLYLINE
  5
8C
330
17
100
AcDbEntity
  8
0
100
AcDbPolyline
 90
13
 70
1
 10
58.160000000000004
 20
33.32
 10
58.4
 20
34.44
 10
58.2
 20
33.32
 10
58.800000000000004
 20
33.04
 10
59.0
 20
31.84
 10
59.6
 20
33.04
 10
62.160000000000004
 20
33.4
 10
61.36
 20
33.56
 10
62.2
 20
33.84
 10
62.4
 20
33.44
 10
59.72
 20
33.08
 10
59.04
 20
31.84
 10
58.800000000000004
 20
33.0
  0
LWPOLYLINE
  5
8D
330
17
100
AcDbEntity
  8
0
100
AcDbPolyline
 90
9
 70
1
 10
58.08
 20
31.64
 10
58.08
 20
31.720000000000002
 10
58.2
 20
31.92
 10
58.2
 20
32.12
 10
58.28
 20
32.2
 10
58.28
 20
32.28
 10
58.32
 20
32.24
 10
58.2
 20
32.12
 10
58.2
 20
31.92
  0
LWPOLYLINE
  5
8E
330
17
100
AcDbEntity
  8
0
100
AcDbPolyline
 90
4
 70
1
 10
64.6
 20
31.560000000000002
 10
64.32000000000001
 20
32.6
 10
65.0
 20
34.96
 10
64.32000000000001
 20
32.6
  0
LWPOLYLINE
  5
8F
330
17
100
AcDbEntity
  8
0
100
AcDbPolyline
 90
8
 70
1
 10
57.92
 20
31.36
 10
57.6
 20
31.48
 10
57.76
 20
32.92
 10
57.6
 20
31.48
 10
57.96
 20
31.44
 10
58.04
 20
32.44
 10
57.92
 20
31.560000000000002
 10
58.24
 20
31.560000000000002
  0
LWPOLYLINE
  5
90
330
17
100
AcDbEntity
  8
0
100
AcDbPolyline
 90
7
 70
1
 10
3.48
 20
31.28
 10
3.3200000000000003
 20
31.52
 10
3.04
 20
31.64
 10
2.92
 20
31.76
 10
2.88
 20
31.92
 10
2.96
 20
31.720000000000002
 10
3.36
 20
31.52
  0
LWPOLYLINE
  5
91
330
17
100
AcDbEntity
  8
0
100
AcDbPolyline
 90
7
 70
1
 10
0.0
 20
31.12
 10
0.48
 20
31.44
 10
0.28
 20
31.52
 10
0.04
 20
31.32
 10
0.12
 20
31.44
 10
0.44
 20
31.52
 10
0.44
 20
31.36
  0
LWPOLYLINE
  5
92
330
17
100
AcDbEntity
  8
0
100
AcDbPolyline
 90
8
 70
1
 10
18.28
 20
31.12
 10
18.04
 20
31.080000000000002
 10
17.68
 20
31.240000000000002
 10
17.56
 20
31.560000000000002
 10
17.68
 20
31.88
 10
18.04
 20
32.0
 10
18.48
 20
31.68
 10
18.48
 20
31.28
  0
LWPOLYLINE
  5
93
330
17
100
AcDbEntity
  8
0
100
AcDbPolyline
 90
6
 70
1
 10
41.4
 20
31.720000000000002
 10
42.28
 20
30.96
 10
42.480000000000004
 20
31.76
 10
43.08
 20
32.2
 10
42.480000000000004
 20
31.720000000000002
 10
42.32
 20
30.8
  0
LWPOLYLINE
  5
94
330
17
100
AcDbEntity
  8
0
100
AcDbPolyline
 90
6
 70
1
 10
2.88
 20
30.8
 10
2.4
 20
32.160000000000004
 10
1.8800000000000001
 20
32.56
 10
1.68
 20
33.44
 10
1.8800000000000001
 20
32.6
 10
2.32
 20
32.32
  0
LWPOLYLINE
  5
95
330
17
100
AcDbEntity
  8
0
100
AcDbPolyline
 90
7
 70
1
 10
32.96
 20
30.44
 10
32.52
 20
30.64
 10
32.44
 20
30.88
 10
32.8
 20
30.52
 10
32.0
 20
31.88
 10
32.76
 20
30.6
 10
33.0
 20
31.080000000000002
  0
LWPOLYLINE
  5
96
330
17
100
AcDbEntity
  8
0
100
AcDbPolyline
 90
4
 70
1
 10
7.6000000000000005
 20
30.28
 10
6.88
 20
32.28
 10
2.7600000000000002
 20
32.04
 10
6.88
 20
32.28
  0
LWPOLYLINE
  5
97
330
17
100
AcDbEntity
  8
0
100
AcDbPolyline
 90
6
 70
1
 10
0.0
 20
30.2
 10
0.72
 20
30.72
 10
0.68
 20
30.8
 10
0.52
 20
30.8
 10
0.72
 20
30.8
 10
0.76
 20
30.68
  0
LWPOLYLINE
  5
98
330
17
100
AcDbEntity
  8
0
100
AcDbPolyline
 90
8
 70
1
 10
2.56
 20
30.12
 10
2.52
 20
30.16
 10
2.52
 20
30.400000000000002
 10
2.6
 20
30.560000000000002
 10
2.56
 20
30.52
 10
2.6
 20
30.48
 10
2.52
 20
30.32
 10
2.52
 20
30.16
  0
LWPOLYLINE
  5
99
330
17
100
AcDbEntity
  8
0
100
AcDbPolyline
 90
4
 70
1
 10
0.0
 20
29.8
 10
2.2800000000000002
 20
30.64
 10
1.36
 20
33.36
 10
2.2800000000000002
 20
30.6
  0
LWPOLYLINE
  5
9A
330
17
100
AcDbEntity
  8
0
100
AcDbPolyline
 90
4
 70
1
 10
7.32
 20
31.560000000000002
 10
8.040000000000001
 20
29.76
 10
20.52
 20
31.080000000000002
 10
8.040000000000001
 20
29.76
  0
LWPOLYLINE
  5
9B
330
17
100
AcDbEntity
  8
0
100
AcDbPolyline
 90
8
 70
1
 10
35.4
 20
29.6
 10
35.52
 20
30.52
 10
35.36
 20
31.0
 10
35.64
 20
31.240000000000002
 10
35.36
 20
30.96
 10
35.52
 20
30.52
 10
35.36
 20
29.72
 10
35.88
 20
30.44
  0
LWPOLYLINE
  5
9C
330
17
100
AcDbEntity
  8
0
100
AcDbPolyline
 90
8
 70
1
 10
0.0
 20
29.44
 10
0.32
 20
29.48
 10
0.88
 20
30.0
 10
1.8800000000000001
 20
30.2
 10
2.2800000000000002
 20
29.96
 10
1.8800000000000001
 20
30.2
 10
0.92
 20
30.0
 10
0.4
 20
29.52
  0
LWPOLYLINE
  5
9D
330
17
100
AcDbEntity
  8
0
100
AcDbPolyline
 90
6
 70
1
 10
45.160000000000004
 20
28.92
 10
44.12
 20
30.32
 10
43.52
 20
30.0
 10
42.88
 20
30.240000000000002
 10
43.52
 20
30.0
 10
44.2
 20
30.28
  0
LWPOLYLINE
  5
9E
330
17
100
AcDbEntity
  8
0
100
AcDbPolyline
 90
8
 70
1
 10
71.52
 20
28.88
 10
71.96000000000001
 20
30.64
 10
70.84
 20
31.12
 10
71.32000000000001
 20
32.12
 10
72.48
 20
31.88
 10
71.32000000000001
 20
32.12
 10
70.96000000000001
 20
31.04
 10
71.96000000000001
 20
30.68
  0
LWPOLYLINE
  5
9F
330
17
100
AcDbEntity
  8
0
100
AcDbPolyline
 90
7
 70
1
 10
0.44
 20
28.8
 10
0.44
 20
28.92
 10
0.88
 20
29.32
 10
1.24
 20
29.48
 10
1.32
 20
29.44
 10
1.32
 20
29.32
 10
0.6
 20
28.76
  0
LWPOLYLINE
  5
A0
330
17
100
AcDbEntity
  8
0
100
AcDbPolyline
 90
5
 70
1
 10
3.92
 20
28.52
 10
1.4000000000000001
 20
34.24
 10
0.8
 20
38.64
 10
3.36
 20
38.800000000000004
 10
0.28
 20
38.12
  0
LWPOLYLINE
  5
A1
330
17
100
AcDbEntity
  8
0
100
AcDbPolyline
 90
10
 70
1
 10
59.2
 20
28.48
 10
60.08
 20
31.080000000000002
 10
59.160000000000004
 20
28.68
 10
59.72
 20
28.48
 10
61.28
 20
31.96
 10
60.4
 20
31.84
 10
59.72
 20
30.44
 10
60.08
 20
31.560000000000002
 10
61.24
 20
32.04
 10
59.88
 20
28.64
  0
LWPOLYLINE
  5
A2
330
17
100
AcDbEntity
  8
0
100
AcDbPolyline
 90
7
 70
1
 10
0.72
 20
28.12
 10
0.76
 20
28.28
 10
1.08
 20
28.44
 10
1.32
 20
28.72
 10
1.6
 20
28.8
 10
1.6
 20
28.64
 10
0.88
 20
28.080000000000002
  0
LWPOLYLINE
  5
A3
330
17
100
AcDbEntity
  8
0
100
AcDbPolyline
 90
7
 70
1
 10
0.04
 20
28.04
 10
0.0
 20
28.080000000000002
 10
0.08
 20
28.240000000000002
 10
0.08
 20
28.76
 10
0.0
 20
28.84
 10
0.04
 20
28.88
 10
0.08
 20
28.8
  0
LWPOLYLINE
  5
A4
330
17
100
AcDbEntity
  8
0
100
AcDbPolyline
 90
6
 70
1
 10
1.04
 20
27.44
 10
1.08
 20
27.6
 10
1.72
 20
28.16
 10
1.8800000000000001
 20
28.12
 10
1.8800000000000001
 20
27.96
 10
1.16
 20
27.400000000000002
  0
LWPOLYLINE
  5
A5
330
17
100
AcDbEntity
  8
0
100
AcDbPolyline
 90
13
 70
1
 10
38.36
 20
27.2
 10
38.4
 20
27.32
 10
38.68
 20
27.36
 10
38.52
 20
27.28
 10
38.44
 20
27.32
 10
38.36
 20
27.240000000000002
 10
38.44
 20
27.16
 10
38.88
 20
27.28
 10
38.76
 20
27.400000000000002
 10
38.88
 20
27.32
 10
38.84
 20
27.240000000000002
 10
38.6
 20
27.240000000000002
 10
38.52
 20
27.16
  0
LWPOLYLINE
  5
A6
330
17
100
AcDbEntity
  8
0
100
AcDbPolyline
 90
7
 70
1
 10
42.12
 20
27.16
 10
41.88
 20
27.0
 10
41.12
 20
27.36
 10
40.12
 20
27.32
 10
40.72
 20
27.44
 10
41.88
 20
27.0
 10
42.08
 20
27.28
  0
LWPOLYLINE
  5
A7
330
17
100
AcDbEntity
  8
0
100
AcDbPolyline
 90
6
 70
1
 10
68.84
 20
26.8
 10
73.60000000000001
 20
40.24
 10
70.56
 20
34.28
 10
67.28
 20
33.88
 10
70.4
 20
34.160000000000004
 10
73.64
 20
40.2
  0
LWPOLYLINE
  5
A8
330
17
100
AcDbEntity
  8
0
100
AcDbPolyline
 90
7
 70
1
 10
1.32
 20
26.76
 10
1.32
 20
26.88
 10
1.48
 20
27.080000000000002
 10
2.0
 20
27.48
 10
2.16
 20
27.48
 10
2.16
 20
27.36
 10
1.52
 20
26.76
  0
LWPOLYLINE
  5
A9
330
17
100
AcDbEntity
  8
0
100
AcDbPolyline
 90
10
 70
1
 10
46.160000000000004
 20
26.16
 10
46.08
 20
26.44
 10
46.12
 20
26.6
 10
46.4
 20
26.64
 10
46.4
 20
26.44
 10
46.24
 20
26.16
 10
46.4
 20
26.44
 10
46.4
 20
26.6
 10
46.2
 20
26.64
 10
46.12
 20
26.560000000000002
  0
LWPOLYLINE
  5
AA
330
17
100
AcDbEntity
  8
0
100
AcDbPolyline
 90
7
 70
1
 10
34.32
 20
26.44
 10
18.84
 20
33.2
 10
8.48
 20
30.52
 10
18.84
 20
33.24
 10
12.76
 20
36.88
 10
1.12
 20
36.160000000000004
 10
11.92
 20
37.36
  0
LWPOLYLINE
  5
AB
330
17
100
AcDbEntity
  8
0
100
AcDbPolyline
 90
8
 70
1
 10
1.6
 20
26.12
 10
1.96
 20
26.6
 10
2.44
 20
26.84
 10
2.2800000000000002
 20
26.84
 10
1.6
 20
26.2
 10
1.76
 20
26.12
 10
2.44
 20
26.76
 10
1.96
 20
26.240000000000002
  0
LWPOLYLINE
  5
AC
330
17
100
AcDbEntity
  8
0
100
AcDbPolyline
 90
4
 70
1
 10
46.52
 20
25.48
 10
46.64
 20
26.96
 10
46.84
 20
27.0
 10
46.64
 20
26.92
  0
LWPOLYLINE
  5
AD
330
17
100
AcDbEntity
  8
0
100
AcDbPolyline
 90
7
 70
1
 10
1.8800000000000001
 20
25.48
 10
2.04
 20
25.48
 10
2.64
 20
26.2
 10
1.8800000000000001
 20
25.6
 10
2.52
 20
26.2
 10
2.68
 20
26.2
 10
2.12
 20
25.52
  0
LWPOLYLINE
  5
AE
330
17
100
AcDbEntity
  8
0
100
AcDbPolyline
 90
8
 70
1
 10
44.64
 20
24.76
 10
44.480000000000004
 20
25.560000000000002
 10
44.56
 20
26.0
 10
44.480000000000004
 20
25.88
 10
44.52
 20
25.28
 10
44.76
 20
24.8
 10
44.64
 20
25.04
 10
44.56
 20
24.92
  0
LWPOLYLINE
  5
AF
330
17
100
AcDbEntity
  8
0
100
AcDbPolyline
 90
4
 70
1
 10
34.160000000000004
 20
24.32
 10
34.24
 20
26.16
 10
34.04
 20
26.240000000000002
 10
34.24
 20
26.28
  0
LWPOLYLINE
  5
B0
330
17
100
AcDbEntity
  8
0
100
AcDbPolyline
 90
4
 70
1
 10
46.04
 20
23.96
 10
46.64
 20
24.16
 10
46.92
 20
27.0
 10
46.64
 20
24.12
  0
LWPOLYLINE
  5
B1
330
17
100
AcDbEntity
  8
0
100
AcDbPolyline
 90
13
 70
1
 10
45.68
 20
23.96
 10
45.92
 20
26.84
 10
44.56
 20
26.6
 10
43.88
 20
28.96
 10
46.32
 20
29.6
 10
45.96
 20
31.6
 10
53.92
 20
33.72
 10
57.44
 20
32.0
 10
53.92
 20
33.72
 10
46.0
 20
31.6
 10
46.32
 20
29.560000000000002
 10
43.88
 20
28.92
 10
45.96
 20
26.88
  0
LWPOLYLINE
  5
B2
330
17
100
AcDbEntity
  8
0
100
AcDbPolyline
 90
5
 70
1
 10
40.52
 20
23.52
 10
40.64
 20
23.76
 10
41.04
 20
24.16
 10
41.12
 20
24.52
 10
41.04
 20
24.12
  0
LWPOLYLINE
  5
B3
330
17
100
AcDbEntity
  8
0
100
AcDbPolyline
 90
8
 70
1
 10
44.64
 20
23.0
 10
44.76
 20
23.080000000000002
 10
44.76
 20
23.84
 10
44.76
 20
23.04
 10
44.56
 20
23.04
 10
44.4
 20
23.28
 10
44.72
 20
24.16
 10
44.4
 20
23.28
  0
LWPOLYLINE
  5
B4
330
17
100
AcDbEntity
  8
0
100
AcDbPolyline
 90
2
 70
1
 10
10.120000000000001
 20
22.96
 10
17.92
 20
23.52
  0
LWPOLYLINE
  5
B5
330
17
100
AcDbEntity
  8
0
100
AcDbPolyline
 90
8
 70
1
 10
44.52
 20
22.68
 10
44.32
 20
22.88
 10
44.64
 20
22.72
 10
44.92
 20
23.16
 10
45.0
 20
25.76
 10
44.44
 20
26.560000000000002
 10
45.0
 20
25.76
 10
44.92
 20
23.16
  0
LWPOLYLINE
  5
B6
330
17
100
AcDbEntity
  8
0
100
AcDbPolyline
 90
8
 70
1
 10
34.04
 20
23.080000000000002
 10
33.44
 20
24.36
 10
34.04
 20
23.080000000000002
 10
33.160000000000004
 20
22.84
 10
33.160000000000004
 20
25.400000000000002
 10
26.72
 20
24.8
 10
33.2
 20
25.400000000000002
 10
33.160000000000004
 20
22.84
  0
LWPOLYLINE
  5
B7
330
17
100
AcDbEntity
  8
0
100
AcDbPolyline
 90
8
 70
1
 10
35.32
 20
22.48
 10
35.76
 20
23.12
 10
36.52
 20
23.52
 10
37.56
 20
23.400000000000002
 10
38.36
 20
22.76
 10
37.44
 20
23.44
 10
36.52
 20
23.52
 10
35.800000000000004
 20
23.12
  0
LWPOLYLINE
  5
B8
330
17
100
AcDbEntity
  8
0
100
AcDbPolyline
 90
4
 70
1
 10
43.92
 20
22.400000000000002
 10
43.76
 20
22.96
 10
43.04
 20
23.72
 10
43.72
 20
23.04
  0
LWPOLYLINE
  5
B9
330
17
100
AcDbEntity
  8
0
100
AcDbPolyline
 90
2
 70
1
 10
44.08
 20
22.080000000000002
 10
44.36
 20
26.12
  0
LWPOLYLINE
  5
BA
330
17
100
AcDbEntity
  8
0
100
AcDbPolyline
 90
10
 70
1
 10
39.6
 20
21.12
 10
40.12
 20
21.400000000000002
 10
40.2
 20
22.2
 10
40.92
 20
23.48
 10
42.04
 20
23.92
 10
42.88
 20
23.84
 10
42.04
 20
23.92
 10
40.96
 20
23.48
 10
40.160000000000004
 20
22.080000000000002
 10
40.08
 20
21.32
  0
LWPOLYLINE
  5
BB
330
17
100
AcDbEntity
  8
0
100
AcDbPolyline
 90
7
 70
1
 10
35.12
 20
21.080000000000002
 10
34.480000000000004
 20
21.96
 10
34.4
 20
24.48
 10
34.84
 20
21.080000000000002
 10
35.24
 20
22.64
 10
36.24
 20
23.56
 10
35.160000000000004
 20
22.44
  0
LWPOLYLINE
  5
BC
330
17
100
AcDbEntity
  8
0
100
AcDbPolyline
 90
11
 70
1
 10
43.72
 20
20.52
 10
43.84
 20
21.44
 10
43.2
 20
20.8
 10
43.88
 20
21.56
 10
43.6
 20
22.96
 10
42.88
 20
23.64
 10
42.04
 20
23.76
 10
42.88
 20
23.64
 10
43.6
 20
22.96
 10
43.84
 20
21.44
 10
44.28
 20
21.52
  0
LWPOLYLINE
  5
BD
330
17
100
AcDbEntity
  8
0
100
AcDbPolyline
 90
6
 70
1
 10
34.84
 20
20.52
 10
34.84
 20
20.88
 10
35.24
 20
21.0
 10
35.24
 20
22.240000000000002
 10
35.24
 20
21.0
 10
34.84
 20
20.8
  0
LWPOLYLINE
  5
BE
330
17
100
AcDbEntity
  8
0
100
AcDbPolyline
 90
4
 70
1
 10
41.92
 20
20.12
 10
43.36
 20
20.68
 10
43.76
 20
21.04
 10
43.52
 20
20.76
  0
LWPOLYLINE
  5
BF
330
17
100
AcDbEntity
  8
0
100
AcDbPolyline
 90
2
 70
1
 10
67.72
 20
18.52
 10
74.92
 20
37.56
  0
LWPOLYLINE
  5
C0
330
17
100
AcDbEntity
  8
0
100
AcDbPolyline
 90
4
 70
1
 10
36.04
 20
16.64
 10
34.76
 20
17.88
 10
34.44
 20
18.8
 10
34.76
 20
17.92
  0
LWPOLYLINE
  5
C1
330
17
100
AcDbEntity
  8
0
100
AcDbPolyline
 90
4
 70
1
 10
38.64
 20
15.72
 10
37.04
 20
16.080000000000002
 10
35.88
 20
16.64
 10
37.08
 20
16.080000000000002
  0
LWPOLYLINE
  5
C2
330
17
100
AcDbEntity
  8
0
100
AcDbPolyline
 90
6
 70
1
 10
39.28
 20
15.6
 10
42.32
 20
16.8
 10
43.72
 20
18.64
 10
43.96
 20
19.76
 10
43.52
 20
18.240000000000002
 10
42.36
 20
16.8
  0
LWPOLYLINE
  5
C3
330
17
100
AcDbEntity
  8
0
100
AcDbPolyline
 90
4
 70
1
 10
62.04
 20
16.36
 10
56.160000000000004
 20
15.24
 10
49.4
 20
22.080000000000002
 10
54.160000000000004
 20
22.8
  0
LWPOLYLINE
  5
C4
330
17
100
AcDbEntity
  8
0
100
AcDbPolyline
 90
10
 70
1
 10
0.44
 20
14.0
 10
1.76
 20
15.48
 10
2.56
 20
21.48
 10
1.68
 20
21.92
 10
4.84
 20
25.560000000000002
 10
3.84
 20
28.44
 10
4.84
 20
25.560000000000002
 10
1.68
 20
21.88
 10
2.56
 20
21.52
 10
1.76
 20
15.48
  0
LWPOLYLINE
  5
C5
330
17
100
AcDbEntity
  8
0
100
AcDbPolyline
 90
7
 70
1
 10
0.0
 20
12.64
 10
0.52
 20
12.84
 10
1.04
 20
13.280000000000001
 10
0.96
 20
13.32
 10
1.04
 20
13.280000000000001
 10
1.0
 20
13.16
 10
0.56
 20
12.84
  0
LWPOLYLINE
  5
C6
330
17
100
AcDbEntity
  8
0
100
AcDbPolyline
 90
8
 70
1
 10
0.28
 20
11.56
 10
0.32
 20
11.88
 10
0.68
 20
12.16
 10
0.92
 20
12.120000000000001
 10
1.24
 20
11.6
 10
1.48
 20
11.72
 10
0.76
 20
11.16
 10
0.44
 20
11.24
  0
LWPOLYLINE
  5
C7
330
17
100
AcDbEntity
  8
0
100
AcDbPolyline
 90
7
 70
1
 10
0.8
 20
10.68
 10
1.44
 20
11.200000000000001
 10
1.36
 20
11.120000000000001
 10
1.44
 20
11.040000000000001
 10
1.36
 20
11.120000000000001
 10
0.88
 20
10.68
 10
0.92
 20
10.6
  0
LWPOLYLINE
  5
C8
330
17
100
AcDbEntity
  8
0
100
AcDbPolyline
 90
6
 70
1
 10
0.44
 20
10.24
 10
0.6
 20
10.200000000000001
 10
1.0
 20
10.44
 10
1.68
 20
11.120000000000001
 10
0.92
 20
10.36
 10
0.6
 20
10.200000000000001
  0
LWPOLYLINE
  5
C9
330
17
100
AcDbEntity
  8
0
100
AcDbPolyline
 90
11
 70
1
 10
0.0
 20
9.76
 10
0.12
 20
9.76
 10
0.2
 20
9.84
 10
0.16
 20
9.96
 10
0.08
 20
10.040000000000001
 10
0.0
 20
10.040000000000001
 10
0.12
 20
10.040000000000001
 10
0.2
 20
9.96
 10
0.16
 20
9.92
 10
0.24
 20
9.84
 10
0.16
 20
9.76
  0
LWPOLYLINE
  5
CA
330
17
100
AcDbEntity
  8
0
100
AcDbPolyline
 90
4
 70
1
 10
69.52
 20
2.08
 10
71.44
 20
0.0
 10
69.52
 20
2.2
 10
76.76
 20
4.2
  0
LWPOLYLINE
  5
CB
330
17
100
AcDbEntity
  8
0
100
AcDbPolyline
 90
6
 70
1
 10
35.84
 20
0.0
 10
33.12
 20
10.48
 10
25.080000000000002
 20
8.92
 10
25.0
 20
3.72
 10
25.04
 20
8.92
 10
33.160000000000004
 20
10.48
  0
LWPOLYLINE
  5
CC
330
17
100
AcDbEntity
  8
0
100
AcDbPolyline
 90
6
 70
1
 10
18.56
 20
0.0
 10
19.8
 20
3.36
 10
19.68
 20
4.76
 10
18.96
 20
5.88
 10
19.64
 20
4.92
 10
19.8
 20
3.36
  0
ENDSEC
  0
SECTION
  2
OBJECTS
  0
DICTIONARY
  5
A
330
0
100
AcDbDictionary
280
0
281
1
  3
ACAD_COLOR
350
B
  3
ACAD_GROUP
350
C
  3
ACAD_LAYOUT
350
D
  3
ACAD_MATERIAL
350
E
  3
ACAD_MLEADERSTYLE
350
F
  3
ACAD_MLINESTYLE
350
10
  3
ACAD_PLOTSETTINGS
350
11
  3
ACAD_PLOTSTYLENAME
350
12
  3
ACAD_SCALELIST
350
14
  3
ACAD_TABLESTYLE
350
15
  3
ACAD_VISUALSTYLE
350
16
  3
EZDXF_META
350
2D
  0
DICTIONARY
  5
B
330
A
100
AcDbDictionary
280
0
281
1
  0
DICTIONARY
  5
C
330
A
100
AcDbDictionary
280
0
281
1
  0
DICTIONARY
  5
D
330
A
100
AcDbDictionary
280
0
281
1
  3
Model
350
1A
  3
Layout1
350
1E
  0
DICTIONARY
  5
E
330
A
100
AcDbDictionary
280
0
281
1
  3
ByBlock
350
1F
  3
ByLayer
350
20
  3
Global
350
21
  0
DICTIONARY
  5
F
330
A
100
AcDbDictionary
280
0
281
1
  3
Standard
350
2C
  0
DICTIONARY
  5
10
330
A
100
AcDbDictionary
280
0
281
1
  3
Standard
350
22
  0
DICTIONARY
  5
11
330
A
100
AcDbDictionary
280
0
281
1
  0
ACDBDICTIONARYWDFLT
  5
12
330
A
100
AcDbDictionary
280
0
281
1
  3
Normal
350
13
100
AcDbDictionaryWithDefault
340
13
  0
ACDBPLACEHOLDER
  5
13
330
12
  0
DICTIONARY
  5
14
330
A
100
AcDbDictionary
280
0
281
1
  0
DICTIONARY
  5
15
330
A
100
AcDbDictionary
280
0
281
1
  0
DICTIONARY
  5
16
330
A
100
AcDbDictionary
280
0
281
1
  0
LAYOUT
  5
1A
330
D
100
AcDbPlotSettings
  1

  4
A3
  6

 40
7.5
 41
20.0
 42
7.5
 43
20.0
 44
420.0
 45
297.0
 46
0.0
 47
0.0
 48
0.0
 49
0.0
140
0.0
141
0.0
142
1.0
143
1.0
 70
1024
 72
1
 73
0
 74
5
  7

 75
16
 76
0
 77
2
 78
300
147
1.0
148
0.0
149
0.0
100
AcDbLayout
  1
Model
 70
1
 71
0
 10
0.0
 20
0.0
 11
420.0
 21
297.0
 12
0.0
 22
0.0
 32
0.0
 14
1e+20
 24
1e+20
 34
1e+20
 15
-1e+20
 25
-1e+20
 35
-1e+20
146
0.0
 13
0.0
 23
0.0
 33
0.0
 16
1.0
 26
0.0
 36
0.0
 17
0.0
 27
1.0
 37
0.0
 76
1
330
17
  0
LAYOUT
  5
1E
330
D
100
AcDbPlotSettings
  1

  4
A3
  6

 40
7.5
 41
20.0
 42
7.5
 43
20.0
 44
420.0
 45
297.0
 46
0.0
 47
0.0
 48
0.0
 49
0.0
140
0.0
141
0.0
142
1.0
143
1.0
 70
0
 72
1
 73
0
 74
5
  7

 75
16
 76
0
 77
2
 78
300
147
1.0
148
0.0
149
0.0
100
AcDbLayout
  1
Layout1
 70
1
 71
1
 10
0.0
 20
0.0
 11
420.0
 21
297.0
 12
0.0
 22
0.0
 32
0.0
 14
1e+20
 24
1e+20
 34
1e+20
 15
-1e+20
 25
-1e+20
 35
-1e+20
146
0.0
 13
0.0
 23
0.0
 33
0.0
 16
1.0
 26
0.0
 36
0.0
 17
0.0
 27
1.0
 37
0.0
 76
1
330
1B
  0
MATERIAL
  5
1F
102
{ACAD_REACTORS
330
E
102
}
330
E
100
AcDbMaterial
  1
ByBlock
  2

 70
0
 40
1.0
 71
1
 41
1.0
 91
-1023410177
 42
1.0
 72
1
  3

 73
1
 74
1
 75
1
 44
0.5
 73
0
 45
1.0
 46
1.0
 77
1
  4

 78
1
 79
1
170
1
 48
1.0
171
1
  6

172
1
173
1
174
1
140
1.0
141
1.0
175
1
  7

176
1
177
1
178
1
143
1.0
179
1
  8

270
1
271
1
272
1
145
1.0
146
1.0
273
1
  9

274
1
275
1
276
1
 42
1.0
 72
1
  3

 73
1
 74
1
 75
1
 94
63
  0
MATERIAL
  5
20
102
{ACAD_REACTORS
330
E
102
}
330
E
100
AcDbMaterial
  1
ByLayer
  2

 70
0
 40
1.0
 71
1
 41
1.0
 91
-1023410177
 42
1.0
 72
1
  3

 73
1
 74
1
 75
1
 44
0.5
 73
0
 45
1.0
 46
1.0
 77
1
  4

 78
1
 79
1
170
1
 48
1.0
171
1
  6

172
1
173
1
174
1
140
1.0
141
1.0
175
1
  7

176
1
177
1
178
1
143
1.0
179
1
  8

270
1
271
1
272
1
145
1.0
146
1.0
273
1
  9

274
1
275
1
276
1
 42
1.0
 72
1
  3

 73
1
 74
1
 75
1
 94
63
  0
MATERIAL
  5
21
102
{ACAD_REACTORS
330
E
102
}
330
E
100
AcDbMaterial
  1
Global
  2

 70
0
 40
1.0
 71
1
 41
1.0
 91
-1023410177
 42
1.0
 72
1
  3

 73
1
 74
1
 75
1
 44
0.5
 73
0
 45
1.0
 46
1.0
 77
1
  4

 78
1
 79
1
170
1
 48
1.0
171
1
  6

172
1
173
1
174
1
140
1.0
141
1.0
175
1
  7

176
1
177
1
178
1
143
1.0
179
1
  8

270
1
271
1
272
1
145
1.0
146
1.0
273
1
  9

274
1
275
1
276
1
 42
1.0
 72
1
  3

 73
1
 74
1
 75
1
 94
63
  0
MLINESTYLE
  5
22
102
{ACAD_REACTORS
330
10
102
}
330
10
100
AcDbMlineStyle
  2
Standard
 70
0
  3

 62
256
 51
90.0
 52
90.0
 71
2
 49
0.5
 62
256
  6
BYLAYER
 49
-0.5
 62
256
  6
BYLAYER
  0
MLEADERSTYLE
  5
2C
102
{ACAD_REACTORS
330
F
102
}
330
F
100
AcDbMLeaderStyle
179
2
170
2
171
1
172
0
 90
2
 40
0.0
 41
0.0
173
1
 91
-1056964608
 92
-2
290
1
 42
2.0
291
1
 43
8.0
  3
Standard
 44
4.0
300

342
29
174
1
175
1
176
0
178
1
 93
-1056964608
 45
4.0
292
0
297
0
 46
4.0
 94
-1056964608
 47
1.0
 49
1.0
140
1.0
294
1
141
0.0
177
0
142
1.0
295
0
296
0
143
3.75
271
0
272
9
273
9
  0
DICTIONARY
  5
2D
330
A
100
AcDbDictionary
280
1
281
1
  3
CREATED_BY_EZDXF
350
2E
  3
WRITTEN_BY_EZDXF
350
CF
  0
DICTIONARYVAR
  5
2E
330
2D
100
DictionaryVariables
280
0
  1
1.4.0 @ 2025-04-14T13:42:05.110698+00:00
  0
DICTIONARYVAR
  5
CF
330
2D
100
DictionaryVariables
280
0
  1
1.4.0 @ 2025-04-14T13:42:11.616082+00:00
  0
ENDSEC
  0
EOF
